<svg
    xmlns="http://www.w3.org/2000/svg"
    width="500"
    height="300"
    viewBox="0 0 500 300"
    >
  <g>
    <g>
      <path
        d="M472.17-566.36v62.69h7.82v3.54h-54.58v-3.54h10.47v-33.93c0-6.04 0.45-11.35-1.62-17.1-0.44-1.48-4.86-9.89-7.08-6.2 0.59 2.21 0.89 4.72 0.89 6.93 0 9.88-6.79 16.23-16.52 16.23-10.18 0-17.26-7.08-17.26-17.26 0-10.62 9.3-16.37 19.03-16.37 10.47 0 18.88 5.6 23.75 14.6h0.29v-14.9c14.16 0.45 28.46 1.77 42.63 1.77v3.54z"
        transform="translate(-248.48444726, 711.42124007)"
        stroke-width="1.01"
        stroke-linecap="round"
        stroke-miterlimit="4"
        fill="#000000"
        stroke="rgba(0, 0, 0, 0)"
        />
      <path
        d="M472.05-536.31l72.36-36.19v72.37z"
        transform="translate(-248.48444726, 711.42124007)"
        stroke-width="1.01"
        stroke-linecap="round"
        stroke-miterlimit="4"
        fill="#000000"
        stroke="rgba(0, 0, 0, 0)"
        />
      <path
        d="M544.41-536.31l72.37-36.19v72.37z"
        transform="translate(-248.48444726, 711.42124007)"
        stroke-width="1.0099999999999998"
        stroke-miterlimit="4"
        stroke-linecap="round"
        fill="#000000"
        stroke="rgba(0, 0, 0, 0)"
        />
    </g>
    <path
      stroke-width="7.32"
      stroke-linecap="round"
      stroke-miterlimit="4"
      d="M254.33-234.11c-34.31 0-62.94 24.22-69.47 56.38-4.31-1.46-8.93-2.25-13.71-2.25-24.19 0-43.78 20.26-43.78 45.27 0 0.75 0.04 1.5 0.07 2.25-3.88-0.83-13.23-6.64-17.28-8.17-27.32-10.33-43.62 15.58-43.32 30.99 0.43 22 26.83 33.96 47.75 33.96 6.06 0 7.83 0 19.79 0h209.15c2.21 0.32 17.25 0 19.53 0 27.99 0 47.74-37.45 47.74-67.89 0-30.43-22.7-55.13-50.69-55.13-14.66 0-27.86 6.79-37.11 17.6-7.78-30.47-35.56-53.01-68.67-53.01z"
      transform="translate(0, 299.99994791)"
      fill="none"
      stroke="rgba(0, 0, 0, 0.47)"
      />
  </g>
</svg>